<svg version="1.2" xmlns="http://www.w3.org/2000/svg" viewBox="0 0 1818 369" width="1818" height="369">
	<style>
		.s0 { fill: #00fa7d } 
		.s1 { fill: #ffffff } 
	</style>
	<path id="JobNote" class="s0" aria-label="JobNote"  d="m122.5 368.9q-56.7 0-89.4-29.6-32.6-29.7-32.6-84.6v-21.2h74.6v22.3q0 26.1 12.7 39.6 12.8 13.3 34.7 13.3 21.7 0 34.1-13.3 12.8-13.5 12.8-39.9v-255.3h73.9v254.3q0 55-32.5 84.8-32.1 29.6-88.3 29.6zm269.8 0.4q-41 0-71-17.5-30-17.8-46.4-49.3-16-31.8-16-73.8 0-42.3 16-73.9 16.4-31.9 46.4-49.3 30-17.9 71-17.9 41.2 0 71.1 17.9 30 17.4 46.1 49.3 16.3 31.6 16.3 73.9 0 42-16.3 73.8-16.1 31.5-46.1 49.3-29.9 17.5-71.1 17.5zm0-57.6q19.6 0 32.7-10.7 13.2-11 19.6-29.8 6.7-18.9 6.7-42.8 0-24-6.7-42.6-6.4-19-19.6-29.6-13.1-10.9-32.7-10.9-19.5 0-32.7 10.9-13 10.6-19.8 29.6-6.3 18.5-6.3 42.6 0 23.9 6.3 42.8 6.8 18.8 19.8 29.8 13.2 10.7 32.7 10.7zm299.8 56.8q-22.2 0-37.6-7.4-15.4-7.6-25.2-18.6-9.4-11.2-14.5-22.2h-3.6v43.7h-72v-363.8h73.2v136.8h2.4q5-10.9 14.3-22.3 9.4-11.5 24.7-19.3 15.6-7.8 38.8-7.8 30.3 0 55.1 15.9 25.4 15.4 40.3 46.6 15.3 31.3 15.3 77.9 0 45.4-14.8 76.9-14.5 31.2-39.8 47.6-25 16-56.6 16zm-22.5-58.6q19.2 0 32-10.4 13.2-10.6 19.8-29 6.7-18.8 6.7-42.7 0-24-6.7-42.3-6.5-18.4-19.6-28.8-12.9-10.4-32.2-10.4-18.8 0-32 10.2-13.1 9.9-20 28.3-6.7 18.1-6.7 43 0 24.6 6.7 43.2 7 18.3 20 28.8 13.4 10.1 32 10.1z"/>
	<path id="JobNote" class="s1" aria-label="JobNote"  d="m895.2 364h-76.3v-363.8h83.1l114.9 184.2q8.8 14.2 17.6 30.9 9.3 16.3 18.6 36.6 9.5 20.2 18.9 45.6h-7.6q-1.7-20.3-3.3-43.1-1.3-22.9-2.4-43.7-0.7-21.3-0.7-35.8v-174.7h76.2v363.8h-83.4l-104.3-167q-11.5-18.8-21.3-36.4-9.8-17.7-20.5-39-10.5-21.6-25.2-51.3h9.4q1.6 26.3 3.1 50.5 1.4 24.3 2.2 44 1 19.5 1 32zm387.1 5.4q-41 0-71-17.6-30-17.7-46.4-49.3-16-31.8-16-73.8 0-42.3 16-73.9 16.4-31.9 46.4-49.3 30-17.8 71-17.8 41.2 0 71.1 17.8 30 17.4 46.1 49.3 16.3 31.6 16.3 73.9 0 42-16.3 73.8-16.1 31.6-46.1 49.3-29.9 17.6-71.1 17.6zm0-57.7q19.6 0 32.7-10.7 13.2-11 19.6-29.8 6.7-18.9 6.7-42.7 0-24.1-6.7-42.7-6.4-18.9-19.6-29.5-13.1-11-32.7-11-19.5 0-32.7 11-13 10.6-19.8 29.5-6.3 18.5-6.3 42.7 0 23.8 6.3 42.7 6.8 18.8 19.8 29.8 13.2 10.7 32.7 10.7zm120.6-220.6h161.9v55.8h-161.9zm37.6 199.5v-264.5h73.2v258q0 13.1 5.6 19.4 6 6 19.2 6 4.3 0 11.6-0.9 7.8-1.2 11.7-2.1l10.5 54.9q-12.3 3.6-24.4 5.1-11.9 1.3-23 1.3-41.1 0-62.9-19.9-21.5-19.9-21.5-57.3zm253.1 78.7q-41.8 0-72.1-17-30.2-17.2-46.6-48.6-16-31.6-16-74.8 0-42.1 16-73.6 16.2-32 45.6-49.8 29.6-17.9 69.5-17.9 26.7 0 49.9 8.6 23.3 8.5 40.6 25.9 17.7 16.9 27.5 42.9 10 26 10 61.1v20.6h-229.1v-46.1h193.4l-34.2 12.3q0-21.3-6.7-36.9-6.4-15.9-19.3-24.4-12.6-8.8-31.6-8.8-19 0-32.4 8.8-13.1 8.8-20 23.9-6.9 15-6.9 34.2v32.4q0 23.7 7.9 39.9 8 16 22.2 24.2 14.5 8 33.5 8 12.8 0 23.2-3.4 10.6-3.9 18-11 7.7-7.2 11.6-17.7l66.2 12.2q-6.6 22.7-23.1 39.7-16.1 16.7-40.8 26.1-24.5 9.2-56.3 9.2z"/>
</svg>